
        <svg xmlns="http://www.w3.org/2000/svg" xmlns:xlink="http://www.w3.org/1999/xlink" version="1.1" width="3191.119835039136" height="1037.0805157330058" viewBox="0 0 3191.119835039136 1037.0805157330058">
			
			<g transform="scale(9.55599175195679) translate(10, 10)">
				<defs id="SvgjsDefs1691"/><g id="SvgjsG1692" featureKey="G09qjj-0" transform="matrix(1.1803563706797071,0,0,1.1803563706797071,-10.03302915077751,-15.344632818836192)" fill="#000"><path xmlns="http://www.w3.org/2000/svg" d="M83.5,50.5h-3C80.5,30.5,65,16,46,16S11.5,30.5,11.5,50.5h-3C8.5,29.5,25.3,13,46,13S83.5,29.5,83.5,50.5z"/><path xmlns="http://www.w3.org/2000/svg" d="M75.5,50.5h-3C72.5,35.5,60.6,24,46,24S19.5,35.5,19.5,50.5h-3C16.5,33.5,29.7,21,46,21C62.3,21,75.5,33.5,75.5,50.5z"/><path xmlns="http://www.w3.org/2000/svg" d="M59.5,50.5h-3c0-6-4.7-10.5-10.5-10.5c-5.8,0-10.5,4.5-10.5,10.5h-3c0-8,6.1-13.5,13.5-13.5C53.4,37,59.5,42.5,59.5,50.5z"/><path xmlns="http://www.w3.org/2000/svg" d="M67.5,50.5h-3c0-11-8.3-18.5-18.5-18.5s-18.5,7.5-18.5,18.5h-3c0-12,9.6-21.5,21.5-21.5C57.9,29,67.5,38.5,67.5,50.5z"/><path xmlns="http://www.w3.org/2000/svg" d="M54,88c-20.7,0-37.5-17.5-37.5-37.5h3C19.5,69.5,35,85,54,85s34.5-15.5,34.5-34.5h3C91.5,70.5,74.7,88,54,88z"/><path xmlns="http://www.w3.org/2000/svg" d="M54,80c-16.3,0-29.5-13.5-29.5-29.5h3C27.5,64.5,39.4,77,54,77s26.5-12.5,26.5-26.5h3C83.5,66.5,70.3,80,54,80z"/><path xmlns="http://www.w3.org/2000/svg" d="M54,64c-7.4,0-13.5-6.5-13.5-13.5h3c0,5,4.7,10.5,10.5,10.5s10.5-5.5,10.5-10.5h3C67.5,57.5,61.4,64,54,64z"/><path xmlns="http://www.w3.org/2000/svg" d="M54,72c-11.9,0-21.5-10.5-21.5-21.5h3c0,10,8.3,18.5,18.5,18.5s18.5-8.5,18.5-18.5h3C75.5,61.5,65.9,72,54,72z"/></g><g id="SvgjsG1693" featureKey="0yvIkK-0" transform="matrix(3.702553858433256,0,0,3.702553858433256,111.33540543826574,-3.289986387258555)" fill="#000"><path d="M3.78 5.84 l5.16 11.88 l5.16 -11.88 l1.88 0 l0 14.16 l-1.32 0 l0 -12.48 l-0.04 0 l-5.4 12.48 l-0.58 0 l-5.48 -12.48 l-0.04 0 l0 12.48 l-1.32 0 l0 -14.16 l1.98 0 z M28.68 19.16 q1.9 0 3.4 -2.18 l-3.92 -4.08 q-1.32 0.74 -2 1.51 t-0.68 1.79 q0 1.3 0.91 2.12 t2.29 0.84 z M28.52 11.42 q1.56 -0.78 2.08 -1.43 t0.52 -1.41 q0 -0.82 -0.55 -1.36 t-1.45 -0.54 q-0.84 0 -1.47 0.55 t-0.65 1.45 q0 1.04 1.52 2.74 z M32.44 8.48 q0 1.1 -0.62 1.92 t-2.54 1.84 l3.44 3.64 l2.04 -3.68 l1.36 0 l-2.56 4.52 l3.22 3.38 l-1.78 0 l-2.12 -2.28 q-1.02 1.36 -2.07 1.95 t-2.33 0.59 q-1.88 0 -3.09 -1.16 t-1.23 -2.96 q0 -1.32 0.77 -2.26 t2.47 -1.92 l-0.64 -0.82 q-1.08 -1.34 -1.08 -2.54 q0 -1.4 0.99 -2.29 t2.57 -0.93 q1.38 0 2.28 0.87 t0.92 2.13 z M45.52 5.84 l0 6.24 l0.12 0 l6.86 -6.24 l1.82 0 l-7.16 6.48 l7.56 7.68 l-1.9 0 l-7.18 -7.32 l-0.12 0 l0 7.32 l-1.32 0 l0 -14.16 l1.32 0 z"/></g>
			</g>
		</svg>
	